<?xml version="1.0" encoding="UTF-8" standalone="no"?>
<!DOCTYPE svg PUBLIC "-//W3C//DTD SVG 1.1//EN" "http://www.w3.org/Graphics/SVG/1.1/DTD/svg11.dtd">
<svg width="100%" height="100%" viewBox="0 0 703 104" version="1.1" xmlns="http://www.w3.org/2000/svg" xmlns:xlink="http://www.w3.org/1999/xlink" xml:space="preserve" xmlns:serif="http://www.serif.com/" style="fill-rule:evenodd;clip-rule:evenodd;stroke-linecap:round;stroke-linejoin:round;stroke-miterlimit:1.5;">
    <g transform="matrix(1,0,0,1,-26.238095,-974.232029)">
        <g transform="matrix(7.460349,0,0,0.995483,-165.007242,139.479899)">
            <rect x="26.238" y="843.06" width="92.899" height="95.183" style="stroke:black;stroke-width:1.69px;"/>
        </g>
        <g transform="matrix(1,0,0,1,88.39853,940.581235)">
            <g transform="matrix(90,0,0,90,30.738095,108.027146)">
                <path d="M0.5,-0L0.375,-0L0.375,-0.125L0.125,-0.125L0.125,-0L0,-0L0,-0.5L0.438,-0.5L0.438,-0.438L0.5,-0.438L0.5,-0.25L0.438,-0.25L0.438,-0.188L0.5,-0.188L0.5,-0ZM0.125,-0.25L0.375,-0.25L0.375,-0.375L0.125,-0.375L0.125,-0.25Z" style="fill:white;fill-rule:nonzero;"/>
            </g>
            <g transform="matrix(90,0,0,90,81.363095,108.027146)">
                <path d="M0.5,-0L0,-0L0,-0.5L0.5,-0.5L0.5,-0.375L0.125,-0.375L0.125,-0.312L0.438,-0.312L0.438,-0.188L0.125,-0.188L0.125,-0.125L0.5,-0.125L0.5,-0Z" style="fill:white;fill-rule:nonzero;"/>
            </g>
            <g transform="matrix(90,0,0,90,131.988095,108.027146)">
                <path d="M0.438,-0L0,-0L0,-0.125L0.375,-0.125L0.375,-0.188L0.062,-0.188L0.062,-0.25L0,-0.25L0,-0.438L0.062,-0.438L0.062,-0.5L0.5,-0.5L0.5,-0.375L0.125,-0.375L0.125,-0.312L0.438,-0.312L0.438,-0.25L0.5,-0.25L0.5,-0.062L0.438,-0.062L0.438,-0Z" style="fill:white;fill-rule:nonzero;"/>
            </g>
            <g transform="matrix(90,0,0,90,182.613095,108.027146)">
                <path d="M0.5,-0L0,-0L0,-0.5L0.5,-0.5L0.5,-0.375L0.125,-0.375L0.125,-0.312L0.438,-0.312L0.438,-0.188L0.125,-0.188L0.125,-0.125L0.5,-0.125L0.5,-0Z" style="fill:white;fill-rule:nonzero;"/>
            </g>
            <g transform="matrix(90,0,0,90,233.238095,108.027146)">
                <path d="M0.312,-0L0.188,-0L0.188,-0.375L0,-0.375L0,-0.5L0.5,-0.5L0.5,-0.375L0.312,-0.375L0.312,-0Z" style="fill:white;fill-rule:nonzero;"/>
            </g>
            <g transform="matrix(90,0,0,90,317.613095,108.027146)">
                <path d="M0.438,-0L0,-0L0,-0.5L0.438,-0.5L0.438,-0.438L0.5,-0.438L0.5,-0.062L0.438,-0.062L0.438,-0ZM0.125,-0.125L0.375,-0.125L0.375,-0.375L0.125,-0.375L0.125,-0.125Z" style="fill:white;fill-rule:nonzero;"/>
            </g>
            <g transform="matrix(90,0,0,90,368.238095,108.027146)">
                <path d="M0.5,-0L0,-0L0,-0.5L0.5,-0.5L0.5,-0.375L0.125,-0.375L0.125,-0.312L0.438,-0.312L0.438,-0.188L0.125,-0.188L0.125,-0.125L0.5,-0.125L0.5,-0Z" style="fill:white;fill-rule:nonzero;"/>
            </g>
            <g transform="matrix(90,0,0,90,418.863095,108.027146)">
                <path d="M0.375,-0L0.125,-0L0.125,-0.125L0.062,-0.125L0.062,-0.25L0,-0.25L0,-0.5L0.125,-0.5L0.125,-0.312L0.188,-0.312L0.188,-0.188L0.312,-0.188L0.312,-0.312L0.375,-0.312L0.375,-0.5L0.5,-0.5L0.5,-0.25L0.438,-0.25L0.438,-0.125L0.375,-0.125L0.375,-0Z" style="fill:white;fill-rule:nonzero;"/>
            </g>
            <g transform="matrix(90,0,0,90,469.488095,108.027146)">
                <path d="M0.5,-0L0,-0L0,-0.125L0.188,-0.125L0.188,-0.375L0,-0.375L0,-0.5L0.5,-0.5L0.5,-0.375L0.312,-0.375L0.312,-0.125L0.5,-0.125L0.5,-0Z" style="fill:white;fill-rule:nonzero;"/>
            </g>
            <g transform="matrix(90,0,0,90,520.113095,108.027146)">
                <path d="M0.438,-0L0.062,-0L0.062,-0.062L0,-0.062L0,-0.438L0.062,-0.438L0.062,-0.5L0.438,-0.5L0.438,-0.438L0.5,-0.438L0.5,-0.312L0.375,-0.312L0.375,-0.375L0.125,-0.375L0.125,-0.125L0.375,-0.125L0.375,-0.188L0.5,-0.188L0.5,-0.062L0.438,-0.062L0.438,-0Z" style="fill:white;fill-rule:nonzero;"/>
            </g>
            <g transform="matrix(90,0,0,90,570.738095,108.027146)">
                <path d="M0.5,-0L0,-0L0,-0.5L0.5,-0.5L0.5,-0.375L0.125,-0.375L0.125,-0.312L0.438,-0.312L0.438,-0.188L0.125,-0.188L0.125,-0.125L0.5,-0.125L0.5,-0Z" style="fill:white;fill-rule:nonzero;"/>
            </g>
        </g>
        <g transform="matrix(0.805261,0,0,0.805261,77.005729,1026.108382)">
            <g transform="matrix(1,0,0,1,-32,-32)">
                <g transform="matrix(2.666667,0,0,2.666667,0,0)">
                    <path d="M22,3L22,5L2,5L2,3L8,3L8,2L9,2L9,1L15,1L15,2L16,2L16,3L22,3Z" style="fill:white;fill-rule:nonzero;"/>
                </g>
                <g transform="matrix(2.666667,0,0,2.666667,0,0)">
                    <path d="M4,7L4,22L5,22L5,23L19,23L19,21L20,21L20,7L4,7ZM16,19L14,19L14,9L16,9L16,19ZM10,19L8,19L8,9L10,9L10,19Z" style="fill:white;fill-rule:nonzero;"/>
                </g>
            </g>
        </g>
    </g>
</svg>
