<?xml version="1.0" encoding="UTF-8" standalone="no"?>
<!DOCTYPE svg PUBLIC "-//W3C//DTD SVG 1.1//EN" "http://www.w3.org/Graphics/SVG/1.1/DTD/svg11.dtd">
<svg width="100%" height="100%" viewBox="0 0 912 104" version="1.1" xmlns="http://www.w3.org/2000/svg" xmlns:xlink="http://www.w3.org/1999/xlink" xml:space="preserve" xmlns:serif="http://www.serif.com/" style="fill-rule:evenodd;clip-rule:evenodd;stroke-linecap:round;stroke-linejoin:round;stroke-miterlimit:1.5;">
    <g transform="matrix(1,0,0,1,-26.238095,-843.059974)">
        <g transform="matrix(9.710712,0,0,0.995483,-224.052495,8.307844)">
            <rect x="26.238" y="843.06" width="92.899" height="95.183" style="stroke:black;stroke-width:1.3px;"/>
        </g>
        <g transform="matrix(1,0,0,1,88.39853,809.40918)">
            <g transform="matrix(90,0,0,90,30.738095,108.027146)">
                <path d="M0.438,-0L0,-0L0,-0.5L0.438,-0.5L0.438,-0.438L0.5,-0.438L0.5,-0.062L0.438,-0.062L0.438,-0ZM0.125,-0.125L0.375,-0.125L0.375,-0.375L0.125,-0.375L0.125,-0.125Z" style="fill:white;fill-rule:nonzero;"/>
            </g>
            <g transform="matrix(90,0,0,90,81.363095,108.027146)">
                <path d="M0.438,-0L0.062,-0L0.062,-0.062L0,-0.062L0,-0.438L0.062,-0.438L0.062,-0.5L0.438,-0.5L0.438,-0.438L0.5,-0.438L0.5,-0.062L0.438,-0.062L0.438,-0ZM0.125,-0.125L0.375,-0.125L0.375,-0.375L0.125,-0.375L0.125,-0.125Z" style="fill:white;fill-rule:nonzero;"/>
            </g>
            <g transform="matrix(90,0,0,90,131.988095,108.027146)">
                <path d="M0.5,-0L0.375,-0L0.375,-0.062L0.312,-0.062L0.312,-0.125L0.188,-0.125L0.188,-0.062L0.125,-0.062L0.125,-0L0,-0L0,-0.5L0.125,-0.5L0.125,-0.25L0.188,-0.25L0.188,-0.312L0.312,-0.312L0.312,-0.25L0.375,-0.25L0.375,-0.5L0.5,-0.5L0.5,-0Z" style="fill:white;fill-rule:nonzero;"/>
            </g>
            <g transform="matrix(90,0,0,90,182.613095,108.027146)">
                <path d="M0.5,-0L0.375,-0L0.375,-0.062L0.312,-0.062L0.312,-0.125L0.25,-0.125L0.25,-0.188L0.188,-0.188L0.188,-0.25L0.125,-0.25L0.125,-0L0,-0L0,-0.5L0.125,-0.5L0.125,-0.438L0.188,-0.438L0.188,-0.375L0.25,-0.375L0.25,-0.312L0.312,-0.312L0.312,-0.25L0.375,-0.25L0.375,-0.5L0.5,-0.5L0.5,-0Z" style="fill:white;fill-rule:nonzero;"/>
            </g>
            <g transform="matrix(90,0,0,90,233.238095,108.027146)">
                <path d="M0.5,-0L0,-0L0,-0.5L0.125,-0.5L0.125,-0.125L0.5,-0.125L0.5,-0Z" style="fill:white;fill-rule:nonzero;"/>
            </g>
            <g transform="matrix(90,0,0,90,283.863095,108.027146)">
                <path d="M0.438,-0L0.062,-0L0.062,-0.062L0,-0.062L0,-0.438L0.062,-0.438L0.062,-0.5L0.438,-0.5L0.438,-0.438L0.5,-0.438L0.5,-0.062L0.438,-0.062L0.438,-0ZM0.125,-0.125L0.375,-0.125L0.375,-0.375L0.125,-0.375L0.125,-0.125Z" style="fill:white;fill-rule:nonzero;"/>
            </g>
            <g transform="matrix(90,0,0,90,334.488095,108.027146)">
                <path d="M0.5,-0L0.375,-0L0.375,-0.125L0.125,-0.125L0.125,-0L0,-0L0,-0.438L0.062,-0.438L0.062,-0.5L0.438,-0.5L0.438,-0.438L0.5,-0.438L0.5,-0ZM0.125,-0.25L0.375,-0.25L0.375,-0.375L0.125,-0.375L0.125,-0.25Z" style="fill:white;fill-rule:nonzero;"/>
            </g>
            <g transform="matrix(90,0,0,90,385.113095,108.027146)">
                <path d="M0.438,-0L0,-0L0,-0.5L0.438,-0.5L0.438,-0.438L0.5,-0.438L0.5,-0.062L0.438,-0.062L0.438,-0ZM0.125,-0.125L0.375,-0.125L0.375,-0.375L0.125,-0.375L0.125,-0.125Z" style="fill:white;fill-rule:nonzero;"/>
            </g>
            <g transform="matrix(90,0,0,90,469.488095,108.027146)">
                <path d="M0.5,-0L0.375,-0L0.375,-0.188L0.125,-0.188L0.125,-0L0,-0L0,-0.5L0.125,-0.5L0.125,-0.312L0.375,-0.312L0.375,-0.5L0.5,-0.5L0.5,-0Z" style="fill:white;fill-rule:nonzero;"/>
            </g>
            <g transform="matrix(90,0,0,90,520.113095,108.027146)">
                <path d="M0.5,-0L0,-0L0,-0.125L0.188,-0.125L0.188,-0.375L0,-0.375L0,-0.5L0.5,-0.5L0.5,-0.375L0.312,-0.375L0.312,-0.125L0.5,-0.125L0.5,-0Z" style="fill:white;fill-rule:nonzero;"/>
            </g>
            <g transform="matrix(90,0,0,90,570.738095,108.027146)">
                <path d="M0.438,-0L0,-0L0,-0.125L0.375,-0.125L0.375,-0.188L0.062,-0.188L0.062,-0.25L0,-0.25L0,-0.438L0.062,-0.438L0.062,-0.5L0.5,-0.5L0.5,-0.375L0.125,-0.375L0.125,-0.312L0.438,-0.312L0.438,-0.25L0.5,-0.25L0.5,-0.062L0.438,-0.062L0.438,-0Z" style="fill:white;fill-rule:nonzero;"/>
            </g>
            <g transform="matrix(90,0,0,90,621.363095,108.027146)">
                <path d="M0.312,-0L0.188,-0L0.188,-0.375L0,-0.375L0,-0.5L0.5,-0.5L0.5,-0.375L0.312,-0.375L0.312,-0Z" style="fill:white;fill-rule:nonzero;"/>
            </g>
            <g transform="matrix(90,0,0,90,671.988095,108.027146)">
                <path d="M0.438,-0L0.062,-0L0.062,-0.062L0,-0.062L0,-0.438L0.062,-0.438L0.062,-0.5L0.438,-0.5L0.438,-0.438L0.5,-0.438L0.5,-0.062L0.438,-0.062L0.438,-0ZM0.125,-0.125L0.375,-0.125L0.375,-0.375L0.125,-0.375L0.125,-0.125Z" style="fill:white;fill-rule:nonzero;"/>
            </g>
            <g transform="matrix(90,0,0,90,722.613095,108.027146)">
                <path d="M0.5,-0L0.375,-0L0.375,-0.125L0.125,-0.125L0.125,-0L0,-0L0,-0.5L0.438,-0.5L0.438,-0.438L0.5,-0.438L0.5,-0.25L0.438,-0.25L0.438,-0.188L0.5,-0.188L0.5,-0ZM0.125,-0.25L0.375,-0.25L0.375,-0.375L0.125,-0.375L0.125,-0.25Z" style="fill:white;fill-rule:nonzero;"/>
            </g>
            <g transform="matrix(90,0,0,90,773.238095,108.027146)">
                <path d="M0.312,-0L0.188,-0L0.188,-0.188L0.125,-0.188L0.125,-0.25L0.062,-0.25L0.062,-0.312L0,-0.312L0,-0.5L0.125,-0.5L0.125,-0.375L0.188,-0.375L0.188,-0.312L0.312,-0.312L0.312,-0.375L0.375,-0.375L0.375,-0.5L0.5,-0.5L0.5,-0.312L0.438,-0.312L0.438,-0.25L0.375,-0.25L0.375,-0.188L0.312,-0.188L0.312,-0Z" style="fill:white;fill-rule:nonzero;"/>
            </g>
        </g>
        <g transform="matrix(0.728629,0,0,0.728629,77.005729,894.936327)">
            <g transform="matrix(1,0,0,1,-32,-32)">
                <g transform="matrix(2.666667,0,0,2.666667,0,0)">
                    <path d="M6,12L5,12L5,11L9,11L9,2L10,2L10,1L14,1L14,2L15,2L15,11L19,11L19,12L18,12L18,13L17,13L17,14L16,14L16,15L15,15L15,16L14,16L14,17L13,17L13,18L11,18L11,17L10,17L10,16L9,16L9,15L8,15L8,14L7,14L7,13L6,13L6,12Z" style="fill:white;fill-rule:nonzero;"/>
                </g>
                <g transform="matrix(2.666667,0,0,2.666667,0,0)">
                    <path d="M22,16L22,15L17,15L17,16L16,16L16,17L15,17L15,18L14,18L14,19L10,19L10,18L9,18L9,17L8,17L8,16L7,16L7,15L2,15L2,16L1,16L1,22L2,22L2,23L22,23L22,22L23,22L23,16L22,16ZM20,20L19,20L19,19L20,19L20,20ZM18,19L18,20L17,20L17,19L18,19Z" style="fill:white;fill-rule:nonzero;"/>
                </g>
            </g>
        </g>
    </g>
</svg>
