<?xml version="1.0" encoding="UTF-8" standalone="no"?>
<!DOCTYPE svg PUBLIC "-//W3C//DTD SVG 1.1//EN" "http://www.w3.org/Graphics/SVG/1.1/DTD/svg11.dtd">
<svg width="100%" height="100%" viewBox="0 0 1205 140" version="1.1" xmlns="http://www.w3.org/2000/svg" xmlns:xlink="http://www.w3.org/1999/xlink" xml:space="preserve" xmlns:serif="http://www.serif.com/" style="fill-rule:evenodd;clip-rule:evenodd;stroke-linejoin:round;stroke-miterlimit:2;">
    <g transform="matrix(1,0,0,1,-1.487811,-23.548467)">
        <g transform="matrix(9.690411,0,0,1,-5895.217026,0)">
            <rect x="673.873" y="28.048" width="58.467" height="130.38"/>
        </g>
        <g transform="matrix(9.690411,0,0,1,-5895.217026,0)">
            <path d="M732.804,28.048L732.804,158.428C732.804,160.913 732.596,162.928 732.34,162.928L673.873,162.928C673.616,162.928 673.408,160.913 673.408,158.428L673.408,28.048C673.408,25.563 673.616,23.548 673.873,23.548L732.34,23.548C732.596,23.548 732.804,25.563 732.804,28.048ZM731.875,32.548L674.337,32.548L674.337,153.928L731.875,153.928L731.875,32.548Z"/>
        </g>
        <g transform="matrix(10.756467,0,0,1,-7242.500421,0)">
            <path d="M732.758,28.048L732.758,158.428C732.758,160.913 732.571,162.928 732.34,162.928L673.873,162.928C673.642,162.928 673.454,160.913 673.454,158.428L673.454,28.048C673.454,25.563 673.642,23.548 673.873,23.548L732.34,23.548C732.571,23.548 732.758,25.563 732.758,28.048ZM731.921,32.548L674.291,32.548L674.291,153.928L731.921,153.928L731.921,32.548Z"/>
        </g>
        <g transform="matrix(1,0,0,1,71.023945,-10.102326)">
            <g transform="matrix(120,0,0,120,31.718701,131.150794)">
                <path d="M0.5,-0L0.375,-0L0.375,-0.062L0.312,-0.062L0.312,-0.125L0.188,-0.125L0.188,-0.062L0.125,-0.062L0.125,-0L0,-0L0,-0.5L0.125,-0.5L0.125,-0.25L0.188,-0.25L0.188,-0.312L0.312,-0.312L0.312,-0.25L0.375,-0.25L0.375,-0.5L0.5,-0.5L0.5,-0Z" style="fill-rule:nonzero;"/>
            </g>
            <g transform="matrix(120,0,0,120,99.218701,131.150794)">
                <path d="M0.438,-0L0.062,-0L0.062,-0.062L0,-0.062L0,-0.438L0.062,-0.438L0.062,-0.5L0.438,-0.5L0.438,-0.438L0.5,-0.438L0.5,-0.062L0.438,-0.062L0.438,-0ZM0.125,-0.125L0.375,-0.125L0.375,-0.375L0.125,-0.375L0.125,-0.125Z" style="fill-rule:nonzero;"/>
            </g>
            <g transform="matrix(120,0,0,120,166.718701,131.150794)">
                <path d="M0.5,-0L0.375,-0L0.375,-0.125L0.125,-0.125L0.125,-0L0,-0L0,-0.5L0.438,-0.5L0.438,-0.438L0.5,-0.438L0.5,-0.25L0.438,-0.25L0.438,-0.188L0.5,-0.188L0.5,-0ZM0.125,-0.25L0.375,-0.25L0.375,-0.375L0.125,-0.375L0.125,-0.25Z" style="fill-rule:nonzero;"/>
            </g>
            <g transform="matrix(120,0,0,120,234.218701,131.150794)">
                <path d="M0.438,-0L0,-0L0,-0.5L0.438,-0.5L0.438,-0.438L0.5,-0.438L0.5,-0.062L0.438,-0.062L0.438,-0ZM0.125,-0.125L0.375,-0.125L0.375,-0.375L0.125,-0.375L0.125,-0.125Z" style="fill-rule:nonzero;"/>
            </g>
            <g transform="matrix(120,0,0,120,346.718701,131.150794)">
                <path d="M0.438,-0L0,-0L0,-0.5L0.438,-0.5L0.438,-0.438L0.5,-0.438L0.5,-0.062L0.438,-0.062L0.438,-0ZM0.125,-0.125L0.375,-0.125L0.375,-0.188L0.125,-0.188L0.125,-0.125ZM0.125,-0.312L0.375,-0.312L0.375,-0.375L0.125,-0.375L0.125,-0.312Z" style="fill-rule:nonzero;"/>
            </g>
            <g transform="matrix(120,0,0,120,414.218701,131.150794)">
                <path d="M0.438,-0L0.062,-0L0.062,-0.062L0,-0.062L0,-0.438L0.062,-0.438L0.062,-0.5L0.438,-0.5L0.438,-0.438L0.5,-0.438L0.5,-0.062L0.438,-0.062L0.438,-0ZM0.125,-0.125L0.375,-0.125L0.375,-0.375L0.125,-0.375L0.125,-0.125Z" style="fill-rule:nonzero;"/>
            </g>
            <g transform="matrix(120,0,0,120,481.718701,131.150794)">
                <path d="M0.5,-0L0.375,-0L0.375,-0.062L0.312,-0.062L0.312,-0.125L0.188,-0.125L0.188,-0.062L0.125,-0.062L0.125,-0L0,-0L0,-0.125L0.062,-0.125L0.062,-0.188L0.125,-0.188L0.125,-0.25L0.062,-0.25L0.062,-0.312L0,-0.312L0,-0.5L0.125,-0.5L0.125,-0.375L0.188,-0.375L0.188,-0.312L0.312,-0.312L0.312,-0.375L0.375,-0.375L0.375,-0.5L0.5,-0.5L0.5,-0.312L0.438,-0.312L0.438,-0.25L0.375,-0.25L0.375,-0.188L0.438,-0.188L0.438,-0.125L0.5,-0.125L0.5,-0Z" style="fill-rule:nonzero;"/>
            </g>
        </g>
        <g transform="matrix(1,0,0,1,620.180618,-10.102326)">
            <g transform="matrix(120,0,0,120,30.738095,131.150794)">
                <path d="M0.438,-0L0,-0L0,-0.125L0.375,-0.125L0.375,-0.188L0.062,-0.188L0.062,-0.25L0,-0.25L0,-0.438L0.062,-0.438L0.062,-0.5L0.5,-0.5L0.5,-0.375L0.125,-0.375L0.125,-0.312L0.438,-0.312L0.438,-0.25L0.5,-0.25L0.5,-0.062L0.438,-0.062L0.438,-0Z" style="fill:white;fill-rule:nonzero;"/>
            </g>
            <g transform="matrix(120,0,0,120,98.238095,131.150794)">
                <path d="M0.5,-0L0,-0L0,-0.5L0.5,-0.5L0.5,-0.375L0.125,-0.375L0.125,-0.312L0.438,-0.312L0.438,-0.188L0.125,-0.188L0.125,-0.125L0.5,-0.125L0.5,-0Z" style="fill:white;fill-rule:nonzero;"/>
            </g>
            <g transform="matrix(120,0,0,120,165.738095,131.150794)">
                <path d="M0.312,-0L0.188,-0L0.188,-0.375L0,-0.375L0,-0.5L0.5,-0.5L0.5,-0.375L0.312,-0.375L0.312,-0Z" style="fill:white;fill-rule:nonzero;"/>
            </g>
            <g transform="matrix(120,0,0,120,233.238095,131.150794)">
                <path d="M0.312,-0L0.188,-0L0.188,-0.375L0,-0.375L0,-0.5L0.5,-0.5L0.5,-0.375L0.312,-0.375L0.312,-0Z" style="fill:white;fill-rule:nonzero;"/>
            </g>
            <g transform="matrix(120,0,0,120,300.738095,131.150794)">
                <path d="M0.5,-0L0,-0L0,-0.125L0.188,-0.125L0.188,-0.375L0,-0.375L0,-0.5L0.5,-0.5L0.5,-0.375L0.312,-0.375L0.312,-0.125L0.5,-0.125L0.5,-0Z" style="fill:white;fill-rule:nonzero;"/>
            </g>
            <g transform="matrix(120,0,0,120,368.238095,131.150794)">
                <path d="M0.5,-0L0.375,-0L0.375,-0.062L0.312,-0.062L0.312,-0.125L0.25,-0.125L0.25,-0.188L0.188,-0.188L0.188,-0.25L0.125,-0.25L0.125,-0L0,-0L0,-0.5L0.125,-0.5L0.125,-0.438L0.188,-0.438L0.188,-0.375L0.25,-0.375L0.25,-0.312L0.312,-0.312L0.312,-0.25L0.375,-0.25L0.375,-0.5L0.5,-0.5L0.5,-0Z" style="fill:white;fill-rule:nonzero;"/>
            </g>
            <g transform="matrix(120,0,0,120,435.738095,131.150794)">
                <path d="M0.438,-0L0.062,-0L0.062,-0.062L0,-0.062L0,-0.438L0.062,-0.438L0.062,-0.5L0.5,-0.5L0.5,-0.375L0.125,-0.375L0.125,-0.125L0.375,-0.125L0.375,-0.188L0.25,-0.188L0.25,-0.312L0.5,-0.312L0.5,-0.062L0.438,-0.062L0.438,-0Z" style="fill:white;fill-rule:nonzero;"/>
            </g>
            <g transform="matrix(120,0,0,120,503.238095,131.150794)">
                <path d="M0.438,-0L0,-0L0,-0.125L0.375,-0.125L0.375,-0.188L0.062,-0.188L0.062,-0.25L0,-0.25L0,-0.438L0.062,-0.438L0.062,-0.5L0.5,-0.5L0.5,-0.375L0.125,-0.375L0.125,-0.312L0.438,-0.312L0.438,-0.25L0.5,-0.25L0.5,-0.062L0.438,-0.062L0.438,-0Z" style="fill:white;fill-rule:nonzero;"/>
            </g>
        </g>
        <g transform="matrix(1,0,0,1,5.195307,0.692708)">
            <g transform="matrix(1,0,0,1,-39.458453,0)">
                <rect x="60.969" y="56.962" width="50.459" height="16.84"/>
            </g>
        </g>
        <g transform="matrix(1,0,0,1,5.195307,0.692708)">
            <g transform="matrix(0.890909,0,0,1.265143,-29.982337,-17.779634)">
                <rect x="63.068" y="62.629" width="19.507" height="6.207" style="fill:rgb(235,235,235);"/>
            </g>
        </g>
        <g transform="matrix(1,0,0,1,5.195307,24.625128)">
            <g transform="matrix(1,0,0,1,-39.458453,0)">
                <rect x="60.969" y="56.962" width="50.459" height="16.84"/>
            </g>
        </g>
        <g transform="matrix(1,0,0,1,5.195307,24.625128)">
            <g transform="matrix(0.890909,0,0,1.265143,-6.599029,-17.779634)">
                <rect x="63.068" y="62.629" width="19.507" height="6.207" style="fill:rgb(235,235,235);"/>
            </g>
        </g>
        <g transform="matrix(1,0,0,1,5.195307,49.290214)">
            <g transform="matrix(1,0,0,1,-39.458453,0)">
                <rect x="60.969" y="56.962" width="50.459" height="16.84"/>
            </g>
        </g>
        <g transform="matrix(1,0,0,1,5.195307,49.290214)">
            <g transform="matrix(0.890909,0,0,1.265143,-29.982337,-17.779634)">
                <rect x="63.068" y="62.629" width="19.507" height="6.207" style="fill:rgb(235,235,235);"/>
            </g>
        </g>
    </g>
</svg>
