<?xml version="1.0" encoding="UTF-8" standalone="no"?>
<!DOCTYPE svg PUBLIC "-//W3C//DTD SVG 1.1//EN" "http://www.w3.org/Graphics/SVG/1.1/DTD/svg11.dtd">
<svg width="100%" height="100%" viewBox="0 0 337 81" version="1.1" xmlns="http://www.w3.org/2000/svg" xmlns:xlink="http://www.w3.org/1999/xlink" xml:space="preserve" xmlns:serif="http://www.serif.com/" style="fill-rule:evenodd;clip-rule:evenodd;stroke-linejoin:round;stroke-miterlimit:2;">
    <g transform="matrix(1,0,0,1,-23.949549,-400.349694)">
        <rect id="Artboard1" x="0" y="0" width="1206" height="2622" style="fill:none;"/>
        <g id="Artboard11" serif:id="Artboard1">
            <g transform="matrix(1,0,0,1,-9.231531,22.625355)">
                <g transform="matrix(90,0,0,90,33.18108,440.724339)">
                    <path d="M0.312,-0L0.312,-0.062L0.25,-0.062L0.25,-0.188L0.312,-0.188L0.312,-0.5L0.375,-0.5L0.375,-0L0.312,-0ZM0.062,-0L0.062,-0.5L0.125,-0.5L0.125,-0.438L0.188,-0.438L0.188,-0.312L0.25,-0.312L0.25,-0.188L0.188,-0.188L0.188,-0.312L0.125,-0.312L0.125,-0L0.062,-0Z" style="fill-rule:nonzero;"/>
                </g>
                <g transform="matrix(90,0,0,90,72.55608,440.724339)">
                    <path d="M0.125,-0.062L0.312,-0.062L0.312,-0L0.125,-0L0.125,-0.062ZM0.312,-0.062L0.312,-0.125L0.375,-0.125L0.375,-0.062L0.312,-0.062ZM0.125,-0.062L0.062,-0.062L0.062,-0.312L0.125,-0.312L0.125,-0.25L0.312,-0.25L0.312,-0.312L0.375,-0.312L0.375,-0.188L0.125,-0.188L0.125,-0.062ZM0.312,-0.312L0.125,-0.312L0.125,-0.375L0.312,-0.375L0.312,-0.312Z" style="fill-rule:nonzero;"/>
                </g>
                <g transform="matrix(90,0,0,90,111.93108,440.724339)">
                    <path d="M0.188,-0.062L0.312,-0.062L0.312,-0L0.188,-0L0.188,-0.062ZM0.188,-0.062L0.125,-0.062L0.125,-0.312L0.062,-0.312L0.062,-0.375L0.125,-0.375L0.125,-0.438L0.188,-0.438L0.188,-0.375L0.312,-0.375L0.312,-0.312L0.188,-0.312L0.188,-0.062Z" style="fill-rule:nonzero;"/>
                </g>
                <g transform="matrix(90,0,0,90,145.68108,440.724339)">
                    <path d="M0.375,-0L0.375,-0.125L0.312,-0.125L0.312,-0.25L0.375,-0.25L0.375,-0.188L0.438,-0.188L0.438,-0L0.375,-0ZM0.125,-0L0.125,-0.188L0.188,-0.188L0.188,-0.25L0.25,-0.25L0.25,-0.125L0.188,-0.125L0.188,-0L0.125,-0ZM0.438,-0.188L0.438,-0.375L0.5,-0.375L0.5,-0.188L0.438,-0.188ZM0.125,-0.188L0.062,-0.188L0.062,-0.375L0.125,-0.375L0.125,-0.188ZM0.312,-0.25L0.25,-0.25L0.25,-0.375L0.312,-0.375L0.312,-0.25Z" style="fill-rule:nonzero;"/>
                </g>
                <g transform="matrix(90,0,0,90,196.30608,440.724339)">
                    <path d="M0.125,-0.062L0.312,-0.062L0.312,-0L0.125,-0L0.125,-0.062ZM0.312,-0.062L0.312,-0.312L0.375,-0.312L0.375,-0.062L0.312,-0.062ZM0.125,-0.062L0.062,-0.062L0.062,-0.312L0.125,-0.312L0.125,-0.062ZM0.312,-0.312L0.125,-0.312L0.125,-0.375L0.312,-0.375L0.312,-0.312Z" style="fill-rule:nonzero;"/>
                </g>
                <g transform="matrix(90,0,0,90,235.68108,440.724339)">
                    <path d="M0.062,-0L0.062,-0.375L0.125,-0.375L0.125,-0.312L0.188,-0.312L0.188,-0.25L0.125,-0.25L0.125,-0L0.062,-0ZM0.188,-0.375L0.312,-0.375L0.312,-0.312L0.188,-0.312L0.188,-0.375Z" style="fill-rule:nonzero;"/>
                </g>
                <g transform="matrix(90,0,0,90,269.43108,440.724339)">
                    <path d="M0.312,-0L0.312,-0.062L0.375,-0.062L0.375,-0L0.312,-0ZM0.062,-0L0.062,-0.5L0.125,-0.5L0.125,-0.25L0.188,-0.25L0.188,-0.188L0.25,-0.188L0.25,-0.125L0.312,-0.125L0.312,-0.062L0.25,-0.062L0.25,-0.125L0.188,-0.125L0.188,-0.188L0.125,-0.188L0.125,-0L0.062,-0ZM0.188,-0.25L0.188,-0.312L0.25,-0.312L0.25,-0.25L0.188,-0.25ZM0.25,-0.312L0.25,-0.375L0.312,-0.375L0.312,-0.312L0.25,-0.312Z" style="fill-rule:nonzero;"/>
                </g>
                <g transform="matrix(90,0,0,90,308.80608,440.724339)">
                    <path d="M0.062,-0L0.062,-0.062L0.125,-0.062L0.125,-0L0.062,-0ZM0.062,-0.312L0.062,-0.375L0.125,-0.375L0.125,-0.312L0.062,-0.312Z" style="fill-rule:nonzero;"/>
                </g>
            </g>
            <g transform="matrix(14.745774,-0,0,-24.642472,-329.205081,12342.996152)">
                <rect x="23.95" y="481.35" width="22.834" height="3.287" style="fill-opacity:0;"/>
            </g>
        </g>
    </g>
</svg>
