<?xml version="1.0" encoding="UTF-8" standalone="no"?>
<!DOCTYPE svg PUBLIC "-//W3C//DTD SVG 1.1//EN" "http://www.w3.org/Graphics/SVG/1.1/DTD/svg11.dtd">
<svg viewBox="0 0 708 57" version="1.1" xmlns="http://www.w3.org/2000/svg" xmlns:xlink="http://www.w3.org/1999/xlink" xml:space="preserve" xmlns:serif="http://www.serif.com/" style="fill-rule:evenodd;clip-rule:evenodd;stroke-linejoin:round;stroke-miterlimit:2;">
    <g transform="matrix(1,0,0,1,-47.524517,-669.851043)">
        <g transform="matrix(1,0,0,1,89.94788,616.735007)">
            <g transform="matrix(108,0,0,108,30.738095,107.116037)">
                <path d="M0.312,-0L0.312,-0.125L0.375,-0.125L0.375,-0L0.312,-0ZM0.062,-0L0.062,-0.5L0.312,-0.5L0.312,-0.438L0.375,-0.438L0.375,-0.25L0.312,-0.25L0.312,-0.438L0.125,-0.438L0.125,-0.25L0.312,-0.25L0.312,-0.125L0.25,-0.125L0.25,-0.188L0.125,-0.188L0.125,-0L0.062,-0Z" style="fill-rule:nonzero;"/>
            </g>
            <g transform="matrix(108,0,0,108,77.988095,107.116037)">
                <path d="M0.125,-0.062L0.312,-0.062L0.312,-0L0.062,-0L0.062,-0.5L0.312,-0.5L0.312,-0.438L0.125,-0.438L0.125,-0.312L0.312,-0.312L0.312,-0.25L0.125,-0.25L0.125,-0.062Z" style="fill-rule:nonzero;"/>
            </g>
            <g transform="matrix(108,0,0,108,118.488095,107.116037)">
                <path d="M0.375,-0.375L0.375,-0.438L0.438,-0.438L0.438,-0.375L0.375,-0.375ZM0.188,-0.062L0.375,-0.062L0.375,-0L0.188,-0L0.188,-0.062ZM0.375,-0.062L0.375,-0.125L0.438,-0.125L0.438,-0.062L0.375,-0.062ZM0.188,-0.062L0.125,-0.062L0.125,-0.125L0.188,-0.125L0.188,-0.062ZM0.125,-0.125L0.062,-0.125L0.062,-0.375L0.125,-0.375L0.125,-0.125ZM0.125,-0.375L0.125,-0.438L0.188,-0.438L0.188,-0.375L0.125,-0.375ZM0.375,-0.438L0.188,-0.438L0.188,-0.5L0.375,-0.5L0.375,-0.438Z" style="fill-rule:nonzero;"/>
            </g>
            <g transform="matrix(108,0,0,108,172.488095,107.116037)">
                <path d="M0.438,-0L0.438,-0.125L0.5,-0.125L0.5,-0L0.438,-0ZM0.062,-0L0.062,-0.125L0.125,-0.125L0.125,-0L0.062,-0ZM0.438,-0.125L0.375,-0.125L0.375,-0.188L0.188,-0.188L0.188,-0.125L0.125,-0.125L0.125,-0.25L0.188,-0.25L0.188,-0.375L0.25,-0.375L0.25,-0.25L0.312,-0.25L0.312,-0.375L0.375,-0.375L0.375,-0.25L0.438,-0.25L0.438,-0.125ZM0.312,-0.375L0.25,-0.375L0.25,-0.5L0.312,-0.5L0.312,-0.375Z" style="fill-rule:nonzero;"/>
            </g>
            <g transform="matrix(108,0,0,108,233.238095,107.116037)">
                <path d="M0.125,-0.062L0.312,-0.062L0.312,-0L0.062,-0L0.062,-0.5L0.125,-0.5L0.125,-0.062Z" style="fill-rule:nonzero;"/>
            </g>
            <g transform="matrix(108,0,0,108,273.738095,107.116037)">
                <path d="M0.125,-0.062L0.312,-0.062L0.312,-0L0.062,-0L0.062,-0.5L0.125,-0.5L0.125,-0.062Z" style="fill-rule:nonzero;"/>
            </g>
            <g transform="matrix(108,0,0,108,347.988095,107.116037)">
                <path d="M0.375,-0L0.375,-0.25L0.125,-0.25L0.125,-0L0.062,-0L0.062,-0.5L0.125,-0.5L0.125,-0.312L0.375,-0.312L0.375,-0.5L0.438,-0.5L0.438,-0L0.375,-0Z" style="fill-rule:nonzero;"/>
            </g>
            <g transform="matrix(108,0,0,108,401.988095,107.116037)">
                <rect x="0.062" y="-0.5" width="0.062" height="0.5" style="fill-rule:nonzero;"/>
            </g>
            <g transform="matrix(108,0,0,108,422.238095,107.116037)">
                <path d="M0.312,-0.375L0.312,-0.438L0.375,-0.438L0.375,-0.375L0.312,-0.375ZM0.125,-0.062L0.312,-0.062L0.312,-0L0.125,-0L0.125,-0.062ZM0.312,-0.062L0.312,-0.188L0.375,-0.188L0.375,-0.062L0.312,-0.062ZM0.125,-0.062L0.062,-0.062L0.062,-0.125L0.125,-0.125L0.125,-0.062ZM0.312,-0.188L0.25,-0.188L0.25,-0.25L0.312,-0.25L0.312,-0.188ZM0.25,-0.25L0.125,-0.25L0.125,-0.312L0.25,-0.312L0.25,-0.25ZM0.125,-0.312L0.062,-0.312L0.062,-0.438L0.125,-0.438L0.125,-0.312ZM0.312,-0.438L0.125,-0.438L0.125,-0.5L0.312,-0.5L0.312,-0.438Z" style="fill-rule:nonzero;"/>
            </g>
            <g transform="matrix(108,0,0,108,469.488095,107.116037)">
                <path d="M0.188,-0L0.188,-0.438L0.062,-0.438L0.062,-0.5L0.375,-0.5L0.375,-0.438L0.25,-0.438L0.25,-0L0.188,-0Z" style="fill-rule:nonzero;"/>
            </g>
            <g transform="matrix(108,0,0,108,516.738095,107.116037)">
                <path d="M0.188,-0.062L0.375,-0.062L0.375,-0L0.188,-0L0.188,-0.062ZM0.375,-0.062L0.375,-0.125L0.438,-0.125L0.438,-0.062L0.375,-0.062ZM0.188,-0.062L0.125,-0.062L0.125,-0.125L0.188,-0.125L0.188,-0.062ZM0.438,-0.125L0.438,-0.375L0.5,-0.375L0.5,-0.125L0.438,-0.125ZM0.125,-0.125L0.062,-0.125L0.062,-0.375L0.125,-0.375L0.125,-0.125ZM0.438,-0.375L0.375,-0.375L0.375,-0.438L0.438,-0.438L0.438,-0.375ZM0.125,-0.375L0.125,-0.438L0.188,-0.438L0.188,-0.375L0.125,-0.375ZM0.375,-0.438L0.188,-0.438L0.188,-0.5L0.375,-0.5L0.375,-0.438Z" style="fill-rule:nonzero;"/>
            </g>
            <g transform="matrix(108,0,0,108,577.488095,107.116037)">
                <path d="M0.312,-0L0.312,-0.125L0.375,-0.125L0.375,-0L0.312,-0ZM0.062,-0L0.062,-0.5L0.312,-0.5L0.312,-0.438L0.375,-0.438L0.375,-0.25L0.312,-0.25L0.312,-0.438L0.125,-0.438L0.125,-0.25L0.312,-0.25L0.312,-0.125L0.25,-0.125L0.25,-0.188L0.125,-0.188L0.125,-0L0.062,-0Z" style="fill-rule:nonzero;"/>
            </g>
            <g transform="matrix(108,0,0,108,624.738095,107.116037)">
                <path d="M0.188,-0L0.188,-0.25L0.25,-0.25L0.25,-0L0.188,-0ZM0.25,-0.25L0.25,-0.375L0.312,-0.375L0.312,-0.25L0.25,-0.25ZM0.188,-0.25L0.125,-0.25L0.125,-0.375L0.188,-0.375L0.188,-0.25ZM0.312,-0.375L0.312,-0.5L0.375,-0.5L0.375,-0.375L0.312,-0.375ZM0.125,-0.375L0.062,-0.375L0.062,-0.5L0.125,-0.5L0.125,-0.375Z" style="fill-rule:nonzero;"/>
            </g>
        </g>
        <g transform="matrix(0.841679,0,0,0.841679,74.458251,699.097417)">
            <g transform="matrix(1,0,0,1,-32,-32)">
                <g transform="matrix(2.666667,0,0,2.666667,0,0)">
                    <path d="M23,6L23,21L22,21L22,22L2,22L2,21L1,21L1,3L2,3L2,2L11,2L11,3L12,3L12,4L13,4L13,5L22,5L22,6L23,6Z" style="fill-rule:nonzero;"/>
                </g>
            </g>
        </g>
    </g>
</svg>
