<?xml version="1.0" encoding="UTF-8" standalone="no"?>
<!DOCTYPE svg PUBLIC "-//W3C//DTD SVG 1.1//EN" "http://www.w3.org/Graphics/SVG/1.1/DTD/svg11.dtd">
<svg width="100%" height="100%" viewBox="0 0 325 104" version="1.1" xmlns="http://www.w3.org/2000/svg" xmlns:xlink="http://www.w3.org/1999/xlink" xml:space="preserve" xmlns:serif="http://www.serif.com/" style="fill-rule:evenodd;clip-rule:evenodd;stroke-linejoin:round;stroke-miterlimit:2;">
    <g transform="matrix(1,0,0,1,-26.670332,-1480.389411)">
        <g transform="matrix(0.275475,0,0,0.780571,22.702744,1455.109989)">
            <rect x="30.738" y="38.151" width="1144.524" height="121.389"/>
        </g>
        <g transform="matrix(0.276015,0,0,0.780571,22.568006,1455.109989)">
            <path d="M1191.137,38.151L1191.137,159.54C1191.137,162.724 1184.03,165.305 1175.262,165.305L30.738,165.305C21.97,165.305 14.863,162.724 14.863,159.54L14.863,38.151C14.863,34.967 21.97,32.386 30.738,32.386L1175.262,32.386C1184.03,32.386 1191.137,34.967 1191.137,38.151ZM1159.386,43.916L46.614,43.916L46.614,153.775L1159.386,153.775L1159.386,43.916Z"/>
        </g>
        <g transform="matrix(1,0,0,1,93.435535,1446.738617)">
            <g transform="matrix(90,0,0,90,34.630792,108.027146)">
                <path d="M0.438,-0L0,-0L0,-0.125L0.375,-0.125L0.375,-0.188L0.062,-0.188L0.062,-0.25L0,-0.25L0,-0.438L0.062,-0.438L0.062,-0.5L0.5,-0.5L0.5,-0.375L0.125,-0.375L0.125,-0.312L0.438,-0.312L0.438,-0.25L0.5,-0.25L0.5,-0.062L0.438,-0.062L0.438,-0Z" style="fill:white;fill-rule:nonzero;"/>
            </g>
            <g transform="matrix(90,0,0,90,85.255792,108.027146)">
                <path d="M0.5,-0L0.375,-0L0.375,-0.125L0.125,-0.125L0.125,-0L0,-0L0,-0.438L0.062,-0.438L0.062,-0.5L0.438,-0.5L0.438,-0.438L0.5,-0.438L0.5,-0ZM0.125,-0.25L0.375,-0.25L0.375,-0.375L0.125,-0.375L0.125,-0.25Z" style="fill:white;fill-rule:nonzero;"/>
            </g>
            <g transform="matrix(90,0,0,90,135.880792,108.027146)">
                <path d="M0.375,-0L0.125,-0L0.125,-0.125L0.062,-0.125L0.062,-0.25L0,-0.25L0,-0.5L0.125,-0.5L0.125,-0.312L0.188,-0.312L0.188,-0.188L0.312,-0.188L0.312,-0.312L0.375,-0.312L0.375,-0.5L0.5,-0.5L0.5,-0.25L0.438,-0.25L0.438,-0.125L0.375,-0.125L0.375,-0Z" style="fill:white;fill-rule:nonzero;"/>
            </g>
            <g transform="matrix(90,0,0,90,186.505792,108.027146)">
                <path d="M0.5,-0L0,-0L0,-0.5L0.5,-0.5L0.5,-0.375L0.125,-0.375L0.125,-0.312L0.438,-0.312L0.438,-0.188L0.125,-0.188L0.125,-0.125L0.5,-0.125L0.5,-0Z" style="fill:white;fill-rule:nonzero;"/>
            </g>
        </g>
        <g transform="matrix(0.834328,0,0,0.834328,77.005729,1532.265763)">
            <g transform="matrix(1,0,0,1,-32,-32)">
                <g transform="matrix(2.666667,0,0,2.666667,0,0)">
                    <path d="M15,14L15,18L14,18L14,19L10,19L10,18L9,18L9,14L10,14L10,13L14,13L14,14L15,14Z" style="fill:white;fill-rule:nonzero;"/>
                </g>
                <g transform="matrix(2.666667,0,0,2.666667,0,0)">
                    <path d="M22,7L22,6L21,6L21,5L20,5L20,4L19,4L19,3L18,3L18,2L17,2L17,1L2,1L2,2L1,2L1,22L2,22L2,23L22,23L22,22L23,22L23,7L22,7ZM15,10L15,3L16,3L16,4L17,4L17,5L18,5L18,6L19,6L19,7L20,7L20,8L21,8L21,21L3,21L3,3L4,3L4,10L15,10ZM6,3L13,3L13,8L6,8L6,3Z" style="fill:white;fill-rule:nonzero;"/>
                </g>
            </g>
        </g>
    </g>
</svg>
