<?xml version="1.0" encoding="UTF-8" standalone="no"?>
<!DOCTYPE svg PUBLIC "-//W3C//DTD SVG 1.1//EN" "http://www.w3.org/Graphics/SVG/1.1/DTD/svg11.dtd">
<svg width="100%" height="100%" viewBox="0 0 325 104" version="1.1" xmlns="http://www.w3.org/2000/svg" xmlns:xlink="http://www.w3.org/1999/xlink" xml:space="preserve" xmlns:serif="http://www.serif.com/" style="fill-rule:evenodd;clip-rule:evenodd;stroke-linejoin:round;stroke-miterlimit:2;">
    <g transform="matrix(1,0,0,1,-26.670332,-1614.628656)">
        <g transform="matrix(0.275475,0,0,0.780571,22.702744,1589.349234)">
            <rect x="30.738" y="38.151" width="1144.524" height="121.389"/>
        </g>
        <g transform="matrix(0.276015,0,0,0.780571,22.568006,1589.349234)">
            <path d="M1191.137,38.151L1191.137,159.54C1191.137,162.724 1184.03,165.305 1175.262,165.305L30.738,165.305C21.97,165.305 14.863,162.724 14.863,159.54L14.863,38.151C14.863,34.967 21.97,32.386 30.738,32.386L1175.262,32.386C1184.03,32.386 1191.137,34.967 1191.137,38.151ZM1159.386,43.916L46.614,43.916L46.614,153.775L1159.386,153.775L1159.386,43.916Z"/>
        </g>
        <g transform="matrix(1,0,0,1,93.435535,1580.977862)">
            <g transform="matrix(90,0,0,90,34.630792,108.027146)">
                <path d="M0.438,-0L0,-0L0,-0.125L0.375,-0.125L0.375,-0.188L0.062,-0.188L0.062,-0.25L0,-0.25L0,-0.438L0.062,-0.438L0.062,-0.5L0.5,-0.5L0.5,-0.375L0.125,-0.375L0.125,-0.312L0.438,-0.312L0.438,-0.25L0.5,-0.25L0.5,-0.062L0.438,-0.062L0.438,-0Z" style="fill:white;fill-rule:nonzero;"/>
            </g>
            <g transform="matrix(90,0,0,90,85.255792,108.027146)">
                <path d="M0.438,-0L0.062,-0L0.062,-0.062L0,-0.062L0,-0.438L0.062,-0.438L0.062,-0.5L0.438,-0.5L0.438,-0.438L0.5,-0.438L0.5,-0.312L0.375,-0.312L0.375,-0.375L0.125,-0.375L0.125,-0.125L0.375,-0.125L0.375,-0.188L0.5,-0.188L0.5,-0.062L0.438,-0.062L0.438,-0Z" style="fill:white;fill-rule:nonzero;"/>
            </g>
            <g transform="matrix(90,0,0,90,135.880792,108.027146)">
                <path d="M0.5,-0L0.375,-0L0.375,-0.125L0.125,-0.125L0.125,-0L0,-0L0,-0.438L0.062,-0.438L0.062,-0.5L0.438,-0.5L0.438,-0.438L0.5,-0.438L0.5,-0ZM0.125,-0.25L0.375,-0.25L0.375,-0.375L0.125,-0.375L0.125,-0.25Z" style="fill:white;fill-rule:nonzero;"/>
            </g>
            <g transform="matrix(90,0,0,90,186.505792,108.027146)">
                <path d="M0.5,-0L0.375,-0L0.375,-0.062L0.312,-0.062L0.312,-0.125L0.25,-0.125L0.25,-0.188L0.188,-0.188L0.188,-0.25L0.125,-0.25L0.125,-0L0,-0L0,-0.5L0.125,-0.5L0.125,-0.438L0.188,-0.438L0.188,-0.375L0.25,-0.375L0.25,-0.312L0.312,-0.312L0.312,-0.25L0.375,-0.25L0.375,-0.5L0.5,-0.5L0.5,-0Z" style="fill:white;fill-rule:nonzero;"/>
            </g>
        </g>
        <g transform="matrix(0.834328,0,0,0.834328,81.505729,1666.505009)">
            <g transform="matrix(1,0,0,1,-32,-32)">
                <g transform="matrix(2.666667,0,0,2.666667,0,0)">
                    <path d="M23,14L23,15L22,15L22,17L21,17L21,19L20,19L20,20L19,20L19,21L17,21L17,22L15,22L15,23L9,23L9,22L7,22L7,21L5,21L5,20L3,20L3,21L2,21L2,22L1,22L1,14L9,14L9,15L8,15L8,16L7,16L7,18L8,18L8,19L10,19L10,20L14,20L14,19L16,19L16,18L17,18L17,17L18,17L18,15L19,15L19,14L23,14Z" style="fill:white;fill-rule:nonzero;"/>
                </g>
                <g transform="matrix(2.666667,0,0,2.666667,0,0)">
                    <path d="M23,2L23,10L15,10L15,9L16,9L16,8L17,8L17,6L16,6L16,5L14,5L14,4L10,4L10,5L8,5L8,6L7,6L7,7L6,7L6,9L5,9L5,10L1,10L1,9L2,9L2,7L3,7L3,5L4,5L4,4L5,4L5,3L7,3L7,2L9,2L9,1L15,1L15,2L17,2L17,3L19,3L19,4L21,4L21,3L22,3L22,2L23,2Z" style="fill:white;fill-rule:nonzero;"/>
                </g>
            </g>
        </g>
    </g>
</svg>
