<?xml version="1.0" encoding="UTF-8" standalone="no"?>
<!DOCTYPE svg PUBLIC "-//W3C//DTD SVG 1.1//EN" "http://www.w3.org/Graphics/SVG/1.1/DTD/svg11.dtd">
<svg viewBox="0 0 497 59" version="1.1" xmlns="http://www.w3.org/2000/svg" xmlns:xlink="http://www.w3.org/1999/xlink" xml:space="preserve" xmlns:serif="http://www.serif.com/" style="fill-rule:evenodd;clip-rule:evenodd;stroke-linejoin:round;stroke-miterlimit:2;">
    <g transform="matrix(1,0,0,1,-42.921448,-571.963118)">
        <g transform="matrix(1,0,0,1,89.94788,518.895724)">
            <g transform="matrix(108,0,0,108,30.738095,107.116037)">
                <path d="M0.438,-0L0.438,-0.125L0.5,-0.125L0.5,-0L0.438,-0ZM0.188,-0L0.188,-0.125L0.25,-0.125L0.25,-0L0.188,-0ZM0.5,-0.125L0.5,-0.312L0.562,-0.312L0.562,-0.125L0.5,-0.125ZM0.438,-0.125L0.375,-0.125L0.375,-0.312L0.438,-0.312L0.438,-0.125ZM0.25,-0.125L0.25,-0.312L0.312,-0.312L0.312,-0.125L0.25,-0.125ZM0.188,-0.125L0.125,-0.125L0.125,-0.312L0.188,-0.312L0.188,-0.125ZM0.562,-0.312L0.562,-0.5L0.625,-0.5L0.625,-0.312L0.562,-0.312ZM0.375,-0.312L0.312,-0.312L0.312,-0.5L0.375,-0.5L0.375,-0.312ZM0.125,-0.312L0.062,-0.312L0.062,-0.5L0.125,-0.5L0.125,-0.312Z" style="fill-rule:nonzero;"/>
            </g>
            <g transform="matrix(108,0,0,108,104.988095,107.116037)">
                <rect x="0.062" y="-0.5" width="0.062" height="0.5" style="fill-rule:nonzero;"/>
            </g>
            <g transform="matrix(108,0,0,108,125.238095,107.116037)">
                <path d="M0.062,-0L0.062,-0.5L0.312,-0.5L0.312,-0.438L0.125,-0.438L0.125,-0.312L0.312,-0.312L0.312,-0.25L0.125,-0.25L0.125,-0L0.062,-0Z" style="fill-rule:nonzero;"/>
            </g>
            <g transform="matrix(108,0,0,108,165.738095,107.116037)">
                <rect x="0.062" y="-0.5" width="0.062" height="0.5" style="fill-rule:nonzero;"/>
            </g>
            <g transform="matrix(108,0,0,108,219.738095,107.116037)">
                <path d="M0.312,-0.375L0.312,-0.438L0.375,-0.438L0.375,-0.375L0.312,-0.375ZM0.125,-0.062L0.312,-0.062L0.312,-0L0.125,-0L0.125,-0.062ZM0.312,-0.062L0.312,-0.188L0.375,-0.188L0.375,-0.062L0.312,-0.062ZM0.125,-0.062L0.062,-0.062L0.062,-0.125L0.125,-0.125L0.125,-0.062ZM0.312,-0.188L0.25,-0.188L0.25,-0.25L0.312,-0.25L0.312,-0.188ZM0.25,-0.25L0.125,-0.25L0.125,-0.312L0.25,-0.312L0.25,-0.25ZM0.125,-0.312L0.062,-0.312L0.062,-0.438L0.125,-0.438L0.125,-0.312ZM0.312,-0.438L0.125,-0.438L0.125,-0.5L0.312,-0.5L0.312,-0.438Z" style="fill-rule:nonzero;"/>
            </g>
            <g transform="matrix(108,0,0,108,266.988095,107.116037)">
                <path d="M0.125,-0.062L0.312,-0.062L0.312,-0L0.062,-0L0.062,-0.5L0.312,-0.5L0.312,-0.438L0.125,-0.438L0.125,-0.312L0.312,-0.312L0.312,-0.25L0.125,-0.25L0.125,-0.062Z" style="fill-rule:nonzero;"/>
            </g>
            <g transform="matrix(108,0,0,108,307.488095,107.116037)">
                <path d="M0.188,-0L0.188,-0.438L0.062,-0.438L0.062,-0.5L0.375,-0.5L0.375,-0.438L0.25,-0.438L0.25,-0L0.188,-0Z" style="fill-rule:nonzero;"/>
            </g>
            <g transform="matrix(108,0,0,108,354.738095,107.116037)">
                <path d="M0.188,-0.062L0.312,-0.062L0.312,-0L0.188,-0L0.188,-0.062ZM0.312,-0.062L0.312,-0.125L0.375,-0.125L0.375,-0.062L0.312,-0.062ZM0.188,-0.062L0.125,-0.062L0.125,-0.125L0.188,-0.125L0.188,-0.062ZM0.375,-0.125L0.375,-0.5L0.438,-0.5L0.438,-0.125L0.375,-0.125ZM0.125,-0.125L0.062,-0.125L0.062,-0.5L0.125,-0.5L0.125,-0.125Z" style="fill-rule:nonzero;"/>
            </g>
            <g transform="matrix(108,0,0,108,408.738095,107.116037)">
                <path d="M0.062,-0L0.062,-0.5L0.312,-0.5L0.312,-0.438L0.375,-0.438L0.375,-0.25L0.312,-0.25L0.312,-0.438L0.125,-0.438L0.125,-0.25L0.312,-0.25L0.312,-0.188L0.125,-0.188L0.125,-0L0.062,-0Z" style="fill-rule:nonzero;"/>
            </g>
        </g>
        <g transform="matrix(0.913602,0,0,0.913602,72.156717,601.198387)">
            <g transform="matrix(1,0,0,1,-32,-32)">
                <g transform="matrix(2.666667,0,0,2.666667,0,0)">
                    <rect x="9" y="1" width="1" height="1"/>
                </g>
                <g transform="matrix(2.666667,0,0,2.666667,0,0)">
                    <path d="M9,2L9,3L8,3L8,5L7,5L7,8L2,8L2,7L3,7L3,5L4,5L4,4L5,4L5,3L7,3L7,2L9,2Z" style="fill-rule:nonzero;"/>
                </g>
                <g transform="matrix(2.666667,0,0,2.666667,0,0)">
                    <path d="M13,2L14,2L14,4L15,4L15,6L16,6L16,8L8,8L8,6L9,6L9,4L10,4L10,2L11,2L11,1L13,1L13,2Z" style="fill-rule:nonzero;"/>
                </g>
                <g transform="matrix(2.666667,0,0,2.666667,0,0)">
                    <rect x="14" y="1" width="1" height="1"/>
                </g>
                <g transform="matrix(2.666667,0,0,2.666667,0,0)">
                    <path d="M22,7L22,8L17,8L17,5L16,5L16,3L15,3L15,2L17,2L17,3L19,3L19,4L20,4L20,5L21,5L21,7L22,7Z" style="fill-rule:nonzero;"/>
                </g>
                <g transform="matrix(2.666667,0,0,2.666667,0,0)">
                    <path d="M17,10L17,14L16,14L16,15L8,15L8,14L7,14L7,10L8,10L8,9L16,9L16,10L17,10Z" style="fill-rule:nonzero;"/>
                </g>
                <g transform="matrix(2.666667,0,0,2.666667,0,0)">
                    <path d="M1,9L7,9L7,10L6,10L6,14L7,14L7,15L1,15L1,9Z" style="fill-rule:nonzero;"/>
                </g>
                <g transform="matrix(2.666667,0,0,2.666667,0,0)">
                    <path d="M23,9L23,15L17,15L17,14L18,14L18,10L17,10L17,9L23,9Z" style="fill-rule:nonzero;"/>
                </g>
                <g transform="matrix(2.666667,0,0,2.666667,0,0)">
                    <path d="M22,16L22,17L21,17L21,19L20,19L20,20L19,20L19,21L17,21L17,22L15,22L15,21L16,21L16,19L17,19L17,16L22,16Z" style="fill-rule:nonzero;"/>
                </g>
                <g transform="matrix(2.666667,0,0,2.666667,0,0)">
                    <rect x="9" y="22" width="1" height="1"/>
                </g>
                <g transform="matrix(2.666667,0,0,2.666667,0,0)">
                    <path d="M9,21L9,22L7,22L7,21L5,21L5,20L4,20L4,19L3,19L3,17L2,17L2,16L7,16L7,19L8,19L8,21L9,21Z" style="fill-rule:nonzero;"/>
                </g>
                <g transform="matrix(2.666667,0,0,2.666667,0,0)">
                    <rect x="14" y="22" width="1" height="1"/>
                </g>
                <g transform="matrix(2.666667,0,0,2.666667,0,0)">
                    <path d="M14,22L13,22L13,23L11,23L11,22L10,22L10,20L9,20L9,18L8,18L8,16L16,16L16,18L15,18L15,20L14,20L14,22Z" style="fill-rule:nonzero;"/>
                </g>
            </g>
        </g>
    </g>
</svg>
